# xmcd CD database file
#
# Track frame offsets:
#	182
#	16565
#	35840
#	50862
#	66232
#	78090
#	91067
#	106042
#	117607
#	130250
#
# Disc length: 1902 seconds
#
# Revision: 2
# Processed by: cddbd v1.5.1PL0 Copyright (c) Steve Scherf et al.
# Submitted via: CDex 1.51
#
DISCID=7c076c0a
DTITLE=Tina Turner - The Magic Collection
DYEAR=1900
DGENRE=
TTITLE0=Lay It Down
TTITLE1=Lovin' Him Was Easier
TTITLE2=Good Hearted Woman
TTITLE3=If This Was Our Last Time
TTITLE4=Stand By Your Man
TTITLE5=Freedom To Stay
TTITLE6=We Had It All
TTITLE7=Soul Deep
TTITLE8=If It's Alright With You
TTITLE9=You Ain't Woman Emough To Take My Man
EXTD=
EXTT0=Thomas
EXTT1=Kristofferson
EXTT2=Jennings/Nelson
EXTT3=Frazier
EXTT4=Wynette/Sherill
EXTT5=Hoover
EXTT6=Seals/Fritts
EXTT7=Carson Thompson
EXTT8=O'Dell/Henley
EXTT9=Lynn
PLAYORDER=
